<?xml version="1.0" standalone="no"?><!DOCTYPE svg PUBLIC "-//W3C//DTD SVG 1.1//EN" "http://www.w3.org/Graphics/SVG/1.1/DTD/svg11.dtd"><svg class="icon" height="512" viewBox="0 0 1024 1024" version="1.1" xmlns="http://www.w3.org/2000/svg"><path d="M512 1024a512 512 0 1 1 0-1024 512 512 0 0 1 0 1024z m168.96-632.695467a34.133333 34.133333 0 0 0-48.264533-48.264533L512 463.735467 391.304533 343.04a34.133333 34.133333 0 0 0-48.264533 48.264533L463.735467 512 343.04 632.695467a34.133333 34.133333 0 0 0 48.264533 48.264533L512 560.264533l120.695467 120.695467a34.133333 34.133333 0 0 0 48.264533-48.264533L560.264533 512l120.695467-120.695467z" fill="#FF4949" /></svg>